<?xml version="1.0" encoding="UTF-8"?>
<svg version="1.1" xmlns="http://www.w3.org/2000/svg" width="148" height="148">
<path d="M0 0 C48.84 0 97.68 0 148 0 C148 48.84 148 97.68 148 148 C99.16 148 50.32 148 0 148 C0 99.16 0 50.32 0 0 Z " fill="#FCFCFC" transform="translate(0,0)"/>
<path d="M0 0 C4.62 0 9.24 0 14 0 C14.33 10.56 14.66 21.12 15 32 C18.90505254 26.78007518 18.90505254 26.78007518 22.80834961 21.55883789 C23.53550171 20.58805298 23.53550171 20.58805298 24.27734375 19.59765625 C24.77484131 18.93258057 25.27233887 18.26750488 25.78491211 17.58227539 C27 16 27 16 28 15 C30.86267567 14.92674832 33.700719 14.90761795 36.5625 14.9375 C37.36880859 14.94201172 38.17511719 14.94652344 39.00585938 14.95117188 C41.00393756 14.96299482 43.00197783 14.98093086 45 15 C42.17264796 18.89716093 39.31217405 22.68223282 36.1171875 26.28515625 C35.61485596 26.85661377 35.11252441 27.42807129 34.5949707 28.0168457 C33.58057529 29.16408053 32.55573479 30.30217112 31.52026367 31.43041992 C28.82979168 34.34430598 28.82979168 34.34430598 27.92578125 38.0625 C29.40021705 40.72184603 31.16450366 42.92398739 33.125 45.25 C34.33349609 46.69439453 34.33349609 46.69439453 35.56640625 48.16796875 C38.2595792 51.30207853 40.99257817 54.39553311 43.78515625 57.44140625 C45 59 45 59 45 61 C39.31433655 62.1030868 33.55456499 63.07316598 28 61 C22.32090894 56.17903533 18.64893086 49.39673445 15 43 C14.67 48.94 14.34 54.88 14 61 C9.38 61 4.76 61 0 61 C0 40.87 0 20.74 0 0 Z " fill="#1F1F1F" transform="translate(65,39)"/>
<path d="M0 0 C4.70435549 4.23391994 5.91658447 6.4995068 7 13 C2.71 13 -1.58 13 -6 13 C-6.33 11.68 -6.66 10.36 -7 9 C-10.3 9 -13.6 9 -17 9 C-17 10.32 -17 11.64 -17 13 C-15.77023438 13.35191406 -14.54046875 13.70382813 -13.2734375 14.06640625 C-11.64024908 14.56387169 -10.00745687 15.06263918 -8.375 15.5625 C-7.56675781 15.79001953 -6.75851563 16.01753906 -5.92578125 16.25195312 C-0.09467275 18.07713749 3.90400509 20.59093055 7 26 C7.89459161 29.89051985 7.40233614 33.06827421 5.8125 36.75 C2.98873298 40.25536595 0.28709884 42.57096705 -4 44 C-20.33554014 45.27195529 -20.33554014 45.27195529 -26.51953125 40.42578125 C-30.35158608 36.7352799 -32.10114994 34.23601977 -33 29 C-30.73020335 28.89205723 -28.45894804 28.81443824 -26.1875 28.75 C-24.92292969 28.70359375 -23.65835937 28.6571875 -22.35546875 28.609375 C-19 29 -19 29 -17.3125 31 C-16.879375 31.66 -16.44625 32.32 -16 33 C-13.9511352 33.48057715 -13.9511352 33.48057715 -11.8125 33.25 C-10.554375 33.1675 -9.29625 33.085 -8 33 C-7.67 31.68 -7.34 30.36 -7 29 C-10.97996795 27.18305811 -14.76022393 25.77661679 -19 24.6875 C-23.94030213 23.19936618 -28.15374463 21.49599575 -31 17 C-32.02500505 12.5272507 -32.05378124 8.28242574 -30.10546875 4.0625 C-23.30828635 -5.0307206 -9.1381129 -5.66563 0 0 Z " fill="#222222" transform="translate(49,56)"/>
<path d="M0 0 C22.11 0 44.22 0 67 0 C67 0.33 67 0.66 67 1 C66.27296875 1.09796875 65.5459375 1.1959375 64.796875 1.296875 C44.43295258 4.32535577 28.01864556 13.48991475 15.25 29.8125 C7.78724512 40.23666555 3.86529857 50.66236143 1 63 C0.67 63 0.34 63 0 63 C0 42.21 0 21.42 0 0 Z " fill="#010101" transform="translate(0,0)"/>
<path d="M0 0 C1.71418261 3.42836522 2.68811859 6.27913094 3.6875 9.9375 C9.49693978 29.05934608 22.28050413 44.69628376 39.69921875 54.43359375 C44.58391984 56.751659 49.58415242 58.38037152 54.75 59.95703125 C58 61 58 61 62 63 C41.54 63 21.08 63 0 63 C0 42.21 0 21.42 0 0 Z " fill="#010101" transform="translate(0,85)"/>
<path d="M0 0 C21.78 0 43.56 0 66 0 C66 20.79 66 41.58 66 63 C65.67 63 65.34 63 65 63 C64.78085938 61.98421875 64.56171875 60.9684375 64.3359375 59.921875 C61.37620734 46.82590759 56.70118681 36.36648572 48 26 C47.278125 25.01 46.55625 24.02 45.8125 23 C34.69221355 10.05024707 16.62319491 2.74980999 0 1 C0 0.67 0 0.34 0 0 Z " fill="#020202" transform="translate(82,0)"/>
<path d="M0 0 C0.33 0 0.66 0 1 0 C1 19.8 1 39.6 1 60 C-20.78 60 -42.56 60 -65 60 C-65 59.67 -65 59.34 -65 59 C-64.03513672 58.85304688 -64.03513672 58.85304688 -63.05078125 58.703125 C-41.76233356 55.18035762 -24.98896828 46.04243815 -12.17578125 28.3828125 C-6.45238242 19.81418265 -2.46401323 9.97338688 0 0 Z " fill="#020202" transform="translate(147,88)"/>
<path d="M0 0 C2.5 1.5625 2.5 1.5625 4 4 C4.55326548 7.87285839 4.56331202 10.04481874 2.5625 13.4375 C-1.11840224 15.68195258 -4.78774056 15.86106961 -9 15 C-10.75 13.71875 -10.75 13.71875 -12 12 C-12.75 5.25 -12.75 5.25 -10.5 1.5 C-6.9683809 -0.61897146 -4.01676563 -0.79841448 0 0 Z " fill="#FF990A" transform="translate(127,85)"/>
<path d="M0 0 C0.99 0.33 1.98 0.66 3 1 C1.38405168 3.04119788 -0.2856382 5.04072937 -2 7 C-2.66 7 -3.32 7 -4 7 C-2.92598892 4.08482708 -2.22189824 2.22189824 0 0 Z " fill="#282828" transform="translate(22,57)"/>
</svg>
